<svg viewBox="0 0 330 200" xmlns="http://www.w3.org/2000/svg"><g><g><g><g><g><line x1="30" y1="178" x2="25" y2="178" style="visibility: inherit;" fill="rgb(0, 0, 0)" stroke="rgb(204, 204, 204)" stroke-width="1px"></line><line x1="30" y1="161.8181818181818" x2="25" y2="161.8181818181818" style="visibility: inherit;" fill="rgb(0, 0, 0)" stroke="rgb(204, 204, 204)" stroke-width="1px"></line><line x1="30" y1="145.63636363636363" x2="25" y2="145.63636363636363" style="visibility: inherit;" fill="rgb(0, 0, 0)" stroke="rgb(204, 204, 204)" stroke-width="1px"></line><line x1="30" y1="129.45454545454547" x2="25" y2="129.45454545454547" style="visibility: inherit;" fill="rgb(0, 0, 0)" stroke="rgb(204, 204, 204)" stroke-width="1px"></line><line x1="30" y1="113.27272727272727" x2="25" y2="113.27272727272727" style="visibility: inherit;" fill="rgb(0, 0, 0)" stroke="rgb(204, 204, 204)" stroke-width="1px"></line><line x1="30" y1="97.0909090909091" x2="25" y2="97.0909090909091" style="visibility: inherit;" fill="rgb(0, 0, 0)" stroke="rgb(204, 204, 204)" stroke-width="1px"></line><line x1="30" y1="80.90909090909092" x2="25" y2="80.90909090909092" style="visibility: inherit;" fill="rgb(0, 0, 0)" stroke="rgb(204, 204, 204)" stroke-width="1px"></line><line x1="30" y1="64.72727272727273" x2="25" y2="64.72727272727273" style="visibility: inherit;" fill="rgb(0, 0, 0)" stroke="rgb(204, 204, 204)" stroke-width="1px"></line><line x1="30" y1="48.54545454545453" x2="25" y2="48.54545454545453" style="visibility: inherit;" fill="rgb(0, 0, 0)" stroke="rgb(204, 204, 204)" stroke-width="1px"></line><line x1="30" y1="32.363636363636346" x2="25" y2="32.363636363636346" style="visibility: inherit;" fill="rgb(0, 0, 0)" stroke="rgb(204, 204, 204)" stroke-width="1px"></line><line x1="30" y1="16.181818181818187" x2="25" y2="16.181818181818187" style="visibility: inherit;" fill="rgb(0, 0, 0)" stroke="rgb(204, 204, 204)" stroke-width="1px"></line><line x1="30" y1="0" x2="25" y2="0" style="visibility: inherit;" fill="rgb(0, 0, 0)" stroke="rgb(204, 204, 204)" stroke-width="1px"></line></g><g transform="translate(20, 0)"><text x="0" y="178" dx="0em" dy="0.3em" style="text-anchor: end; visibility: hidden; font-family: &quot;Helvetica Neue&quot;, sans-serif; font-size: 12px; font-weight: 200;" fill="rgb(50, 49, 63)" stroke="none" stroke-width="1px">16</text><text x="0" y="161.8181818181818" dx="0em" dy="0.3em" style="text-anchor: end; visibility: inherit; font-family: &quot;Helvetica Neue&quot;, sans-serif; font-size: 12px; font-weight: 200;" fill="rgb(50, 49, 63)" stroke="none" stroke-width="1px">17</text><text x="0" y="145.63636363636363" dx="0em" dy="0.3em" style="text-anchor: end; visibility: hidden; font-family: &quot;Helvetica Neue&quot;, sans-serif; font-size: 12px; font-weight: 200;" fill="rgb(50, 49, 63)" stroke="none" stroke-width="1px">18</text><text x="0" y="129.45454545454547" dx="0em" dy="0.3em" style="text-anchor: end; visibility: inherit; font-family: &quot;Helvetica Neue&quot;, sans-serif; font-size: 12px; font-weight: 200;" fill="rgb(50, 49, 63)" stroke="none" stroke-width="1px">19</text><text x="0" y="113.27272727272727" dx="0em" dy="0.3em" style="text-anchor: end; visibility: hidden; font-family: &quot;Helvetica Neue&quot;, sans-serif; font-size: 12px; font-weight: 200;" fill="rgb(50, 49, 63)" stroke="none" stroke-width="1px">20</text><text x="0" y="97.0909090909091" dx="0em" dy="0.3em" style="text-anchor: end; visibility: inherit; font-family: &quot;Helvetica Neue&quot;, sans-serif; font-size: 12px; font-weight: 200;" fill="rgb(50, 49, 63)" stroke="none" stroke-width="1px">21</text><text x="0" y="80.90909090909092" dx="0em" dy="0.3em" style="text-anchor: end; visibility: hidden; font-family: &quot;Helvetica Neue&quot;, sans-serif; font-size: 12px; font-weight: 200;" fill="rgb(50, 49, 63)" stroke="none" stroke-width="1px">22</text><text x="0" y="64.72727272727273" dx="0em" dy="0.3em" style="text-anchor: end; visibility: inherit; font-family: &quot;Helvetica Neue&quot;, sans-serif; font-size: 12px; font-weight: 200;" fill="rgb(50, 49, 63)" stroke="none" stroke-width="1px">23</text><text x="0" y="48.54545454545453" dx="0em" dy="0.3em" style="text-anchor: end; visibility: hidden; font-family: &quot;Helvetica Neue&quot;, sans-serif; font-size: 12px; font-weight: 200;" fill="rgb(50, 49, 63)" stroke="none" stroke-width="1px">24</text><text x="0" y="32.363636363636346" dx="0em" dy="0.3em" style="text-anchor: end; visibility: inherit; font-family: &quot;Helvetica Neue&quot;, sans-serif; font-size: 12px; font-weight: 200;" fill="rgb(50, 49, 63)" stroke="none" stroke-width="1px">25</text><text x="0" y="16.181818181818187" dx="0em" dy="0.3em" style="text-anchor: end; visibility: hidden; font-family: &quot;Helvetica Neue&quot;, sans-serif; font-size: 12px; font-weight: 200;" fill="rgb(50, 49, 63)" stroke="none" stroke-width="1px">26</text><text x="0" y="0" dx="0em" dy="0.3em" style="text-anchor: end; visibility: hidden; font-family: &quot;Helvetica Neue&quot;, sans-serif; font-size: 12px; font-weight: 200;" fill="rgb(50, 49, 63)" stroke="none" stroke-width="1px">27</text></g><line x1="30" y1="0" x2="30" y2="178" fill="rgb(0, 0, 0)" stroke="rgb(204, 204, 204)" stroke-width="1px"></line></g></g><g transform="translate(30, 0)" clip-path="url(#clip_0)"><clipPath id="clip_0"><rect width="300" height="178"></rect></clipPath><g><g><g><line x1="0" y1="0" x2="0" y2="178" fill="rgb(0, 0, 0)" stroke="rgb(60, 60, 60)" stroke-width="1px" opacity="0.25"></line><line x1="37.5" y1="0" x2="37.5" y2="178" fill="rgb(0, 0, 0)" stroke="rgb(60, 60, 60)" stroke-width="1px" opacity="0.25"></line><line x1="75" y1="0" x2="75" y2="178" fill="rgb(0, 0, 0)" stroke="rgb(60, 60, 60)" stroke-width="1px" opacity="0.25"></line><line x1="112.5" y1="0" x2="112.5" y2="178" fill="rgb(0, 0, 0)" stroke="rgb(60, 60, 60)" stroke-width="1px" opacity="0.25"></line><line x1="150" y1="0" x2="150" y2="178" fill="rgb(0, 0, 0)" stroke="rgb(60, 60, 60)" stroke-width="1px" opacity="0.25"></line><line x1="187.5" y1="0" x2="187.5" y2="178" fill="rgb(0, 0, 0)" stroke="rgb(60, 60, 60)" stroke-width="1px" opacity="0.25"></line><line x1="225" y1="0" x2="225" y2="178" fill="rgb(0, 0, 0)" stroke="rgb(60, 60, 60)" stroke-width="1px" opacity="0.25"></line><line x1="262.5" y1="0" x2="262.5" y2="178" fill="rgb(0, 0, 0)" stroke="rgb(60, 60, 60)" stroke-width="1px" opacity="0.25"></line><line x1="300" y1="0" x2="300" y2="178" fill="rgb(0, 0, 0)" stroke="rgb(60, 60, 60)" stroke-width="1px" opacity="0.25"></line></g><g><line x1="0" y1="178" x2="300" y2="178" fill="rgb(0, 0, 0)" stroke="rgb(60, 60, 60)" stroke-width="1px" opacity="0.25"></line><line x1="0" y1="161.8181818181818" x2="300" y2="161.8181818181818" fill="rgb(0, 0, 0)" stroke="rgb(60, 60, 60)" stroke-width="1px" opacity="0.25"></line><line x1="0" y1="145.63636363636363" x2="300" y2="145.63636363636363" fill="rgb(0, 0, 0)" stroke="rgb(60, 60, 60)" stroke-width="1px" opacity="0.25"></line><line x1="0" y1="129.45454545454547" x2="300" y2="129.45454545454547" fill="rgb(0, 0, 0)" stroke="rgb(60, 60, 60)" stroke-width="1px" opacity="0.25"></line><line x1="0" y1="113.27272727272727" x2="300" y2="113.27272727272727" fill="rgb(0, 0, 0)" stroke="rgb(60, 60, 60)" stroke-width="1px" opacity="0.25"></line><line x1="0" y1="97.0909090909091" x2="300" y2="97.0909090909091" fill="rgb(0, 0, 0)" stroke="rgb(60, 60, 60)" stroke-width="1px" opacity="0.25"></line><line x1="0" y1="80.90909090909092" x2="300" y2="80.90909090909092" fill="rgb(0, 0, 0)" stroke="rgb(60, 60, 60)" stroke-width="1px" opacity="0.25"></line><line x1="0" y1="64.72727272727273" x2="300" y2="64.72727272727273" fill="rgb(0, 0, 0)" stroke="rgb(60, 60, 60)" stroke-width="1px" opacity="0.25"></line><line x1="0" y1="48.54545454545453" x2="300" y2="48.54545454545453" fill="rgb(0, 0, 0)" stroke="rgb(60, 60, 60)" stroke-width="1px" opacity="0.25"></line><line x1="0" y1="32.363636363636346" x2="300" y2="32.363636363636346" fill="rgb(0, 0, 0)" stroke="rgb(60, 60, 60)" stroke-width="1px" opacity="0.25"></line><line x1="0" y1="16.181818181818187" x2="300" y2="16.181818181818187" fill="rgb(0, 0, 0)" stroke="rgb(60, 60, 60)" stroke-width="1px" opacity="0.25"></line><line x1="0" y1="0" x2="300" y2="0" fill="rgb(0, 0, 0)" stroke="rgb(60, 60, 60)" stroke-width="1px" opacity="0.25"></line></g></g></g><g><g><line x1="0" y1="436.90909090909093" x2="300" y2="436.90909090909093" fill="rgb(0, 0, 0)" stroke="rgb(153, 153, 153)" stroke-width="1.5px"></line></g></g><g><g><line x1="0" y1="0" x2="0" y2="178" fill="rgb(0, 0, 0)" stroke="rgb(153, 153, 153)" stroke-width="1.5px"></line></g></g><g><g><g><g><g><path stroke="rgb(51, 187, 238)" stroke-width="2px" d="M7.5,63.864243247292265L15,60.56046334179966L22.5,17.718544395602464L30,-1.8391912824967278L37.5,46.78949141771619L45,43.46386772011789L52.5,31.371078075270447L60,24.785613233857077L67.5,31.345842586120455L75,19.01341914079231L82.5,34.07408821547557L90,77.46654572176685L97.5,103.44148936963317L105,119.00472647991393L112.5,128.33485963392772L120,133.93013112540683L127.5,137.28628361721312L135,139.29961150128682L142.5,140.507477360721L150,141.23214976907025L157.5,141.66693625679818L165,141.92780204510507L172.5,142.08431932059358L180,142.17822889480175L187.5,142.2345743545391L195,142.26838152785854L202.5,142.28866579494212L210,142.3008363419054L217.5,142.30813866530008L225,142.31252005761488L232.5,142.3151488923839L7.5,142.31672619302213L15,142.31767257332473L22.5,142.31824040147734L30,142.31858109835855L37.5,142.3187855164835L45,142.31890816735708L52.5,142.31898175788083L60,142.31902591219486L67.5,142.31905240478318L75,142.3190683003362L82.5,142.319077837668L90,142.31908356006707L97.5,142.3190869935065L105,142.31908905357017L112.5,142.3190902896084L120,142.3190910312313L127.5,142.31909147620507L135,142.31909174318926L142.5,142.31909190337984L150,142.31909199949416L157.5,142.31909205716278L165,142.31909209176385L172.5,142.3190921125246L180,142.31909212498098L187.5,142.31909213245484L195,142.31909213693922L202.5,142.3190921396298L210,142.31909214124408L217.5,142.31909214221278L225,142.31909214279395L232.5,142.31909214314263L240,142.31909214335184L247.5,142.31909214347738L255,142.3190921435527L262.5,142.31909214359783L270,142.31909214362497L277.5,142.31909214364129L285,142.31909214365106L292.5,142.31909214365686" style="fill: none;" fill="none"></path></g><g><path stroke="rgb(238, 51, 119)" stroke-width="2px" d="M7.5,70.71455903486779L15,60.80318073792891L22.5,17.64479178179178L30,-1.693140635515931L37.5,47.32838788031631L45,44.91955325552499L52.5,32.09453414943448L60,24.96237975969086L67.5,33.51085195629861L75,20.15521223602127L82.5,32.46213618510865L90,75.56018522286807L97.5,101.35889447842175L105,116.81653838042726L112.5,126.08336859261814L120,131.64067737339835L127.5,134.97405909415232L135,136.97372698261688L142.5,138.17339773261716L150,138.8931533949191L157.5,139.32498995007012L165,139.58408582024742L172.5,139.7395411597677L180,139.8328135777623L187.5,139.8887767457037L195,139.92235454464122L202.5,139.94250118734598L210,139.95458915977218L217.5,139.9618419384771L225,139.9661936039897L232.5,139.96880460268156L7.5,139.970371201675L15,139.97131116099132L22.5,139.97187513655234L30,139.97221352187861L37.5,139.9724165530707L45,139.9725383717846L52.5,139.97261146301244L60,139.97265531774903L67.5,139.97268163059084L75,139.9726974182959L82.5,139.97270689091897L90,139.97271257449282L97.5,139.97271598463706L105,139.97271803072366L112.5,139.97271925837566L120,139.9727199949668L127.5,139.9727204369215L135,139.97272070209436L142.5,139.97272086119796L150,139.97272095666023L157.5,139.97272101393756L165,139.97272104830395L172.5,139.97272106892382L180,139.97272108129573L187.5,139.97272108871886L195,139.97272109317274L202.5,139.9727210958451L210,139.97272109744844L217.5,139.97272109841055L225,139.9727210989878L232.5,139.97272109933408L240,139.97272109954193L247.5,139.9727210996665L255,139.97272109974136L262.5,139.9727210997862L270,139.9727210998131L277.5,139.97272109982924L285,139.97272109983902L292.5,139.97272109984476" style="fill: none;" fill="none"></path></g></g></g></g><g opacity="0.2"><g><g><g><path stroke="rgb(51, 187, 238)" stroke-width="2px" d="M7.5,63.864243247292265L15,58.57819539850408L22.5,-23.40969779274681L30,-24.839088439941406L37.5,110.27909955111417L45,38.86333292180842L52.5,14.078195398504079L60,15.183942274613827L67.5,41.02090662175959L75,0.7012075944380456L82.5,56.52849266745828L90,142.31909214366567L97.5,142.31909214366567L105,142.31909214366567L112.5,142.31909214366567L120,142.31909214366567L127.5,142.31909214366567L135,142.31909214366567L142.5,142.31909214366567L150,142.31909214366567L157.5,142.31909214366567L165,142.31909214366567L172.5,142.31909214366567L180,142.31909214366567L187.5,142.31909214366567L195,142.31909214366567L202.5,142.31909214366567L210,142.31909214366567L217.5,142.31909214366567L225,142.31909214366567L232.5,142.31909214366567L7.5,142.31909214366567L15,142.31909214366567L22.5,142.31909214366567L30,142.31909214366567L37.5,142.31909214366567L45,142.31909214366567L52.5,142.31909214366567L60,142.31909214366567L67.5,142.31909214366567L75,142.31909214366567L82.5,142.31909214366567L90,142.31909214366567L97.5,142.31909214366567L105,142.31909214366567L112.5,142.31909214366567L120,142.31909214366567L127.5,142.31909214366567L135,142.31909214366567L142.5,142.31909214366567L150,142.31909214366567L157.5,142.31909214366567L165,142.31909214366567L172.5,142.31909214366567L180,142.31909214366567L187.5,142.31909214366567L195,142.31909214366567L202.5,142.31909214366567L210,142.31909214366567L217.5,142.31909214366567L225,142.31909214366567L232.5,142.31909214366567L240,142.31909214366567L247.5,142.31909214366567L255,142.31909214366567L262.5,142.31909214366567L270,142.31909214366567L277.5,142.31909214366567L285,142.31909214366567L292.5,142.31909214366567" style="fill: none;" fill="none"></path></g><g><path stroke="rgb(238, 51, 119)" stroke-width="2px" d="M7.5,70.71455903486772L15,54.856353759765625L22.5,-23.787261616099954L30,-24.434549158269732L37.5,111.33089551058683L45,41.58726778897372L52.5,13.754551627419204L60,14.56363019076261L67.5,46.11818799105558L75,0.32364377108487474L82.5,50.81089921431108L90,139.97272109985352L97.5,139.97272109985352L105,139.97272109985352L112.5,139.97272109985352L120,139.97272109985352L127.5,139.97272109985352L135,139.97272109985352L142.5,139.97272109985352L150,139.97272109985352L157.5,139.97272109985352L165,139.97272109985352L172.5,139.97272109985352L180,139.97272109985352L187.5,139.97272109985352L195,139.97272109985352L202.5,139.97272109985352L210,139.97272109985352L217.5,139.97272109985352L225,139.97272109985352L232.5,139.97272109985352L7.5,139.97272109985352L15,139.97272109985352L22.5,139.97272109985352L30,139.97272109985352L37.5,139.97272109985352L45,139.97272109985352L52.5,139.97272109985352L60,139.97272109985352L67.5,139.97272109985352L75,139.97272109985352L82.5,139.97272109985352L90,139.97272109985352L97.5,139.97272109985352L105,139.97272109985352L112.5,139.97272109985352L120,139.97272109985352L127.5,139.97272109985352L135,139.97272109985352L142.5,139.97272109985352L150,139.97272109985352L157.5,139.97272109985352L165,139.97272109985352L172.5,139.97272109985352L180,139.97272109985352L187.5,139.97272109985352L195,139.97272109985352L202.5,139.97272109985352L210,139.97272109985352L217.5,139.97272109985352L225,139.97272109985352L232.5,139.97272109985352L240,139.97272109985352L247.5,139.97272109985352L255,139.97272109985352L262.5,139.97272109985352L270,139.97272109985352L277.5,139.97272109985352L285,139.97272109985352L292.5,139.97272109985352" style="fill: none;" fill="none"></path></g></g></g></g></g></g><g transform="translate(30, 178)" clip-path="url(#clip_1)"><clipPath id="clip_1"><rect width="300" height="22"></rect></clipPath><g><g><line x1="0" y1="0" x2="0" y2="5" style="visibility: inherit;" fill="rgb(0, 0, 0)" stroke="rgb(204, 204, 204)" stroke-width="1px"></line><line x1="37.5" y1="0" x2="37.5" y2="5" style="visibility: inherit;" fill="rgb(0, 0, 0)" stroke="rgb(204, 204, 204)" stroke-width="1px"></line><line x1="75" y1="0" x2="75" y2="5" style="visibility: inherit;" fill="rgb(0, 0, 0)" stroke="rgb(204, 204, 204)" stroke-width="1px"></line><line x1="112.5" y1="0" x2="112.5" y2="5" style="visibility: inherit;" fill="rgb(0, 0, 0)" stroke="rgb(204, 204, 204)" stroke-width="1px"></line><line x1="150" y1="0" x2="150" y2="5" style="visibility: inherit;" fill="rgb(0, 0, 0)" stroke="rgb(204, 204, 204)" stroke-width="1px"></line><line x1="187.5" y1="0" x2="187.5" y2="5" style="visibility: inherit;" fill="rgb(0, 0, 0)" stroke="rgb(204, 204, 204)" stroke-width="1px"></line><line x1="225" y1="0" x2="225" y2="5" style="visibility: inherit;" fill="rgb(0, 0, 0)" stroke="rgb(204, 204, 204)" stroke-width="1px"></line><line x1="262.5" y1="0" x2="262.5" y2="5" style="visibility: inherit;" fill="rgb(0, 0, 0)" stroke="rgb(204, 204, 204)" stroke-width="1px"></line><line x1="300" y1="0" x2="300" y2="5" style="visibility: inherit;" fill="rgb(0, 0, 0)" stroke="rgb(204, 204, 204)" stroke-width="1px"></line></g><g transform="translate(0, 8)"><text x="0" y="0" dx="0em" dy="0.95em" style="text-anchor: middle; visibility: hidden; font-family: &quot;Helvetica Neue&quot;, sans-serif; font-size: 12px; font-weight: 200;" fill="rgb(50, 49, 63)" stroke="none" stroke-width="1px">0</text><text x="37.5" y="0" dx="0em" dy="0.95em" style="text-anchor: middle; visibility: inherit; font-family: &quot;Helvetica Neue&quot;, sans-serif; font-size: 12px; font-weight: 200;" fill="rgb(50, 49, 63)" stroke="none" stroke-width="1px">5</text><text x="75" y="0" dx="0em" dy="0.95em" style="text-anchor: middle; visibility: inherit; font-family: &quot;Helvetica Neue&quot;, sans-serif; font-size: 12px; font-weight: 200;" fill="rgb(50, 49, 63)" stroke="none" stroke-width="1px">10</text><text x="112.5" y="0" dx="0em" dy="0.95em" style="text-anchor: middle; visibility: inherit; font-family: &quot;Helvetica Neue&quot;, sans-serif; font-size: 12px; font-weight: 200;" fill="rgb(50, 49, 63)" stroke="none" stroke-width="1px">15</text><text x="150" y="0" dx="0em" dy="0.95em" style="text-anchor: middle; visibility: inherit; font-family: &quot;Helvetica Neue&quot;, sans-serif; font-size: 12px; font-weight: 200;" fill="rgb(50, 49, 63)" stroke="none" stroke-width="1px">20</text><text x="187.5" y="0" dx="0em" dy="0.95em" style="text-anchor: middle; visibility: inherit; font-family: &quot;Helvetica Neue&quot;, sans-serif; font-size: 12px; font-weight: 200;" fill="rgb(50, 49, 63)" stroke="none" stroke-width="1px">25</text><text x="225" y="0" dx="0em" dy="0.95em" style="text-anchor: middle; visibility: inherit; font-family: &quot;Helvetica Neue&quot;, sans-serif; font-size: 12px; font-weight: 200;" fill="rgb(50, 49, 63)" stroke="none" stroke-width="1px">30</text><text x="262.5" y="0" dx="0em" dy="0.95em" style="text-anchor: middle; visibility: inherit; font-family: &quot;Helvetica Neue&quot;, sans-serif; font-size: 12px; font-weight: 200;" fill="rgb(50, 49, 63)" stroke="none" stroke-width="1px">35</text><text x="300" y="0" dx="0em" dy="0.95em" style="text-anchor: middle; visibility: hidden; font-family: &quot;Helvetica Neue&quot;, sans-serif; font-size: 12px; font-weight: 200;" fill="rgb(50, 49, 63)" stroke="none" stroke-width="1px">40</text></g><line x1="0" y1="0" x2="300" y2="0" fill="rgb(0, 0, 0)" stroke="rgb(204, 204, 204)" stroke-width="1px"></line></g></g></g></g></svg>